# Low-poly evergreen tree (procedural OBJ) - Unity axis (Y up)
mtllib evergreen_tree.mtl
o EvergreenTree
v 0.060000 0.000000 0.000000
v 0.060000 1.600000 0.000000
v 0.042426 0.000000 0.042426
v 0.042426 1.600000 0.042426
v 0.000000 0.000000 0.060000
v 0.000000 1.600000 0.060000
v -0.042426 0.000000 0.042426
v -0.042426 1.600000 0.042426
v -0.060000 0.000000 0.000000
v -0.060000 1.600000 0.000000
v -0.042426 0.000000 -0.042426
v -0.042426 1.600000 -0.042426
v -0.000000 0.000000 -0.060000
v -0.000000 1.600000 -0.060000
v 0.042426 0.000000 -0.042426
v 0.042426 1.600000 -0.042426
v 0.000000 0.000000 0.000000
v 0.000000 1.600000 0.000000
v 0.000000 0.000000 0.000000
v 0.000000 1.600000 0.000000
v 0.067605 0.000000 0.020334
v 0.067605 0.000000 0.020334
v 0.226655 -0.226776 0.068221
v -0.000776 0.000000 0.060468
v 0.000373 0.000000 0.034859
v 0.218418 -0.234921 0.065744
v -0.035609 0.000000 0.050367
v -0.000418 0.000000 0.023024
v -0.114914 -0.237682 0.162449
v -0.061441 0.000000 0.027783
v -0.015924 0.000000 0.034233
v -0.194972 -0.234275 0.088064
v -0.058825 0.000000 -0.011764
v -0.012885 0.000000 0.005924
v -0.246726 -0.268335 -0.049345
v -0.018555 0.000000 -0.050690
v -0.001721 0.000000 -0.026693
v -0.075932 -0.269268 -0.207311
v 0.024349 0.000000 -0.059445
v 0.002812 0.000000 -0.033739
v 0.097548 -0.241351 -0.238002
v 0.052928 0.000000 -0.037570
v 0.018288 0.000000 -0.026574
v 0.200753 -0.252383 -0.142510
v 0.064307 0.000000 0.003934
v 0.015532 0.000000 0.000570
v 0.266988 -0.258761 0.016339
v 0.064944 0.000000 0.020671
v 0.064944 0.000000 0.020671
v 0.209402 -0.209021 0.066687
v 0.000036 0.000000 0.060465
v 0.000226 0.000000 0.034812
v 0.190281 -0.218684 0.057509
v -0.035490 0.000000 0.050451
v -0.000513 0.000000 0.022997
v -0.120517 -0.209157 0.171394
v -0.061468 0.000000 0.027882
v -0.015894 0.000000 0.034231
v -0.207476 -0.201675 0.094101
v -0.058727 0.000000 -0.011843
v -0.012818 0.000000 0.005898
v -0.237860 -0.247932 -0.047601
v -0.018454 0.000000 -0.050610
v -0.001838 0.000000 -0.026735
v -0.073332 -0.256615 -0.200894
v 0.024342 0.000000 -0.059524
v 0.002749 0.000000 -0.033707
v 0.096727 -0.218402 -0.235941
v 0.053033 0.000000 -0.037592
v 0.018327 0.000000 -0.026579
v 0.187532 -0.230609 -0.133079
v 0.064221 0.000000 0.004048
v 0.015467 0.000000 0.000588
v 0.257433 -0.249506 0.016205
v 0.062104 0.000000 0.018996
v 0.062104 0.000000 0.018996
v 0.193236 -0.193277 0.059146
v 0.000096 0.000000 0.056484
v 0.000316 0.000000 0.032745
v 0.179723 -0.198395 0.054047
v -0.033330 0.000000 0.047405
v -0.000561 0.000000 0.021631
v -0.111105 -0.199535 0.157962
v -0.057714 0.000000 0.025958
v -0.014904 0.000000 0.032019
v -0.192053 -0.193080 0.087096
v -0.055151 0.000000 -0.011141
v -0.012113 0.000000 0.005305
v -0.214075 -0.226464 -0.043223
v -0.017413 0.000000 -0.045693
v -0.001747 0.000000 -0.024153
v -0.066201 -0.232734 -0.181660
v 0.022050 0.000000 -0.053569
v 0.002429 0.000000 -0.030591
v 0.086134 -0.197973 -0.210584
v 0.047765 0.000000 -0.033812
v 0.016783 0.000000 -0.024243
v 0.171467 -0.207311 -0.121431
v 0.058708 0.000000 0.003616
v 0.014116 0.000000 0.000486
v 0.231389 -0.223212 0.014253
v 0.058474 0.000000 0.020352
v 0.058474 0.000000 0.020352
v 0.179263 -0.178843 0.062334
v 0.000225 0.000000 0.053220
v 0.000239 0.000000 0.030723
v 0.164492 -0.192130 0.051967
v -0.031796 0.000000 0.044594
v -0.000465 0.000000 0.020470
v -0.096453 -0.192587 0.138614
v -0.054391 0.000000 0.024392
v -0.014488 0.000000 0.030762
v -0.180287 -0.178154 0.081273
v -0.051871 0.000000 -0.010215
v -0.011215 0.000000 0.004948
v -0.192788 -0.212216 -0.038302
v -0.016134 0.000000 -0.041302
v -0.001834 0.000000 -0.021896
v -0.060573 -0.215786 -0.166227
v 0.019788 0.000000 -0.049566
v 0.002205 0.000000 -0.028313
v 0.078474 -0.192886 -0.196492
v 0.043822 0.000000 -0.031289
v 0.015174 0.000000 -0.022485
v 0.150982 -0.196236 -0.108036
v 0.054475 0.000000 0.003407
v 0.013190 0.000000 0.000518
v 0.207248 -0.208477 0.012938
v 0.055522 0.000000 0.019925
v 0.055522 0.000000 0.019925
v 0.165618 -0.165414 0.059455
v 0.000099 0.000000 0.049724
v 0.000334 0.000000 0.028683
v 0.149081 -0.183292 0.053395
v -0.029700 0.000000 0.041955
v -0.000351 0.000000 0.019226
v -0.094938 -0.176493 0.134105
v -0.050695 0.000000 0.022605
v -0.013937 0.000000 0.028383
v -0.165397 -0.170989 0.075686
v -0.048609 0.000000 -0.009842
v -0.010394 0.000000 0.004673
v -0.175967 -0.189566 -0.035358
v -0.015003 0.000000 -0.037647
v -0.001788 0.000000 -0.020078
v -0.056204 -0.195822 -0.152359
v 0.018107 0.000000 -0.045426
v 0.002029 0.000000 -0.025924
v 0.072618 -0.183560 -0.182383
v 0.040259 0.000000 -0.029563
v 0.014030 0.000000 -0.021087
v 0.139582 -0.184742 -0.100057
v 0.051366 0.000000 0.003269
v 0.012677 0.000000 0.000457
v 0.196119 -0.196085 0.012454
v 0.052132 0.000000 0.018829
v 0.052132 0.000000 0.018829
v 0.148543 -0.148419 0.053646
v 0.000209 0.000000 0.045918
v 0.000309 0.000000 0.026486
v 0.136232 -0.170788 0.050676
v -0.027789 0.000000 0.039311
v -0.000418 0.000000 0.018046
v -0.082737 -0.169861 0.118927
v -0.047100 0.000000 0.021090
v -0.013153 0.000000 0.027174
v -0.147726 -0.148930 0.069626
v -0.045215 0.000000 -0.009313
v -0.009823 0.000000 0.004507
v -0.154429 -0.175269 -0.030477
v -0.013890 0.000000 -0.033925
v -0.001669 0.000000 -0.017961
v -0.049433 -0.179400 -0.134822
v 0.016696 0.000000 -0.041423
v 0.001856 0.000000 -0.023703
v 0.066828 -0.172088 -0.164513
v 0.036731 0.000000 -0.026792
v 0.012858 0.000000 -0.019079
v 0.122803 -0.169704 -0.087399
v 0.045899 0.000000 0.002847
v 0.011187 0.000000 0.000375
v 0.170101 -0.175064 0.010549
v 0.046775 0.000000 0.017209
v 0.046775 0.000000 0.017209
v 0.131995 -0.132085 0.048540
v 0.000139 0.000000 0.040060
v 0.000310 0.000000 0.023068
v 0.122560 -0.155370 0.044379
v -0.025049 0.000000 0.035296
v -0.000319 0.000000 0.016225
v -0.075154 -0.153591 0.107843
v -0.041865 0.000000 0.018764
v -0.011920 0.000000 0.023792
v -0.133544 -0.133717 0.060760
v -0.039946 0.000000 -0.008284
v -0.008838 0.000000 0.003969
v -0.139992 -0.156170 -0.028844
v -0.012117 0.000000 -0.031293
v -0.001534 0.000000 -0.016595
v -0.045428 -0.161067 -0.124470
v 0.015076 0.000000 -0.037602
v 0.001770 0.000000 -0.021516
v 0.060095 -0.154741 -0.148587
v 0.033011 0.000000 -0.024139
v 0.011459 0.000000 -0.017212
v 0.108509 -0.155950 -0.077651
v 0.040500 0.000000 0.002605
v 0.009827 0.000000 0.000365
v 0.153995 -0.153145 0.009908
v 0.043815 0.000000 0.016135
v 0.043815 0.000000 0.016135
v 0.115141 -0.115246 0.042417
v 0.000173 0.000000 0.034375
v 0.000256 0.000000 0.019819
v 0.104847 -0.139527 0.038385
v -0.021717 0.000000 0.030914
v -0.000262 0.000000 0.014206
v -0.064135 -0.141272 0.090951
v -0.037509 0.000000 0.016748
v -0.010794 0.000000 0.021820
v -0.115529 -0.116590 0.052367
v -0.035770 0.000000 -0.007398
v -0.007777 0.000000 0.003574
v -0.120444 -0.136330 -0.024174
v -0.010957 0.000000 -0.026344
v -0.001394 0.000000 -0.013964
v -0.038892 -0.139868 -0.104297
v 0.012556 0.000000 -0.031628
v 0.001460 0.000000 -0.018071
v 0.050796 -0.137666 -0.122593
v 0.027968 0.000000 -0.020329
v 0.009587 0.000000 -0.014534
v 0.093680 -0.137563 -0.066325
v 0.035890 0.000000 0.002305
v 0.008716 0.000000 0.000434
v 0.127575 -0.137579 0.008377
v 0.040083 0.000000 0.014792
v 0.040083 0.000000 0.014792
v 0.094356 -0.094333 0.036965
v 0.000143 0.000000 0.028926
v 0.000223 0.000000 0.016703
v 0.086469 -0.122322 0.032210
v -0.018337 0.000000 0.026070
v -0.000200 0.000000 0.011962
v -0.052199 -0.120150 0.073895
v -0.032665 0.000000 0.014645
v -0.009315 0.000000 0.018854
v -0.096149 -0.094963 0.043724
v -0.030883 0.000000 -0.006456
v -0.006725 0.000000 0.003090
v -0.100411 -0.118711 -0.020278
v -0.009379 0.000000 -0.022385
v -0.001235 0.000000 -0.011800
v -0.032274 -0.122688 -0.087381
v 0.010752 0.000000 -0.027337
v 0.001214 0.000000 -0.015576
v 0.042486 -0.121914 -0.104769
v 0.023776 0.000000 -0.017105
v 0.008014 0.000000 -0.012354
v 0.078315 -0.120013 -0.054046
v 0.030124 0.000000 0.001952
v 0.007130 0.000000 0.000301
v 0.112709 -0.119511 0.006396
v 0.000000 3.800000 0.000000
v 0.080000 3.450000 0.000000
v 0.040000 3.450000 0.069282
v -0.040000 3.450000 0.069282
v -0.080000 3.450000 0.000000
v -0.040000 3.450000 -0.069282
v 0.040000 3.450000 -0.069282
s off
usemtl Trunk
f 1 3 4 2
f 3 5 6 4
f 5 7 8 6
f 7 9 10 8
f 9 11 12 10
f 11 13 14 12
f 13 15 16 14
f 15 1 2 16
f 17 3 1
f 18 2 4
f 17 5 3
f 18 4 6
f 17 7 5
f 18 6 8
f 17 9 7
f 18 8 10
f 17 11 9
f 18 10 12
f 17 13 11
f 18 12 14
f 17 15 13
f 18 14 16
f 17 1 15
f 18 16 2
usemtl Leaves
f 19 20 21
f 19 21 22
f 23 24 25
f 23 25 26
f 27 28 29
f 27 29 30
f 31 32 33
f 31 33 34
f 35 36 37
f 35 37 38
f 39 40 41
f 39 41 42
f 43 44 45
f 43 45 46
f 47 48 49
f 47 49 50
f 51 52 53
f 51 53 54
f 55 56 57
f 55 57 58
f 59 60 61
f 59 61 62
f 63 64 65
f 63 65 66
f 67 68 69
f 67 69 70
f 71 72 73
f 71 73 74
f 75 76 77
f 75 77 78
f 79 80 81
f 79 81 82
f 83 84 85
f 83 85 86
f 87 88 89
f 87 89 90
f 91 92 93
f 91 93 94
f 95 96 97
f 95 97 98
f 99 100 101
f 99 101 102
f 103 104 105
f 103 105 106
f 107 108 109
f 107 109 110
f 111 112 113
f 111 113 114
f 115 116 117
f 115 117 118
f 119 120 121
f 119 121 122
f 123 124 125
f 123 125 126
f 127 128 129
f 127 129 130
f 131 132 133
f 131 133 134
f 135 136 137
f 135 137 138
f 139 140 141
f 139 141 142
f 143 144 145
f 143 145 146
f 147 148 149
f 147 149 150
f 151 152 153
f 151 153 154
f 155 156 157
f 155 157 158
f 159 160 161
f 159 161 162
f 163 164 165
f 163 165 166
f 167 168 169
f 167 169 170
f 171 172 173
f 171 173 174
f 175 176 177
f 175 177 178
f 179 180 181
f 179 181 182
f 183 184 185
f 183 185 186
f 187 188 189
f 187 189 190
f 191 192 193
f 191 193 194
f 195 196 197
f 195 197 198
f 199 200 201
f 199 201 202
f 203 204 205
f 203 205 206
f 207 208 209
f 207 209 210
f 211 212 213
f 211 213 214
f 215 216 217
f 215 217 218
f 219 220 221
f 219 221 222
f 223 224 225
f 223 225 226
f 227 228 229
f 227 229 230
f 231 232 233
f 231 233 234
f 235 236 237
f 235 237 238
f 239 240 241
f 239 241 242
f 243 244 245
f 243 245 246
f 247 248 249
f 247 249 250
f 251 252 253
f 251 253 254
f 255 256 257
f 255 257 258
f 259 260 261
f 259 261 262
f 263 264 265
f 263 265 266
f 267 268 269
f 267 269 270
f 271 272 273
f 271 273 274
f 275 276 277
f 275 277 278
f 279 280 281
f 279 281 282
f 283 284 285
f 283 285 286
f 287 288 289
f 287 289 290
f 291 292 293
f 291 293 294
f 295 296 297
f 295 297 298
f 299 300 301
f 299 301 302
f 303 304 305
f 303 305 306
f 307 308 309
f 307 309 310
f 312 313 311
f 314 315 311
f 316 317 311
f 318 319 311
f 320 321 311
f 322 323 311
